<?xml version="1.0" encoding="utf-8"?>
<!-- Generator: Adobe Illustrator 26.0.1, SVG Export Plug-In . SVG Version: 6.00 Build 0)  -->
<svg version="1.1" id="Layer_1" xmlns="http://www.w3.org/2000/svg" xmlns:xlink="http://www.w3.org/1999/xlink" x="0px" y="0px"
	 viewBox="0 0 188.55 246.98" style="enable-background:new 0 0 188.55 246.98;" xml:space="preserve">
<style type="text/css">
	.st0{fill:#164194;}
</style>
<g>
	<path id="Path_14" class="st0" d="M56.1,190.57c-4.72,0.03-9.19-2.12-12.12-5.82l-10.34-12.97l-9.09-4.38L0.81,215.17
		c-1.9,3.82-0.34,8.45,3.48,10.34c1.07,0.53,2.24,0.81,3.43,0.81l0,0h22.03L43,243.91c1.46,1.94,3.74,3.07,6.17,3.07h0.71
		c2.66-0.25,5.01-1.86,6.19-4.26l24.09-48.48l-7.55-3.64H56.1V190.57z"/>
	<path id="Path_15" class="st0" d="M187.81,215.19l-23.74-47.76l-9.09,4.38l-10.34,12.97c-2.93,3.7-7.4,5.84-12.12,5.82h-16.58
		l-7.55,3.64l24.09,48.48c1.19,2.4,3.53,4.01,6.19,4.26h0.71c2.42,0,4.71-1.14,6.17-3.07l13.25-17.59h22.03l0,0
		c4.26,0,7.72-3.46,7.71-7.72c0-1.19-0.28-2.37-0.81-3.43L187.81,215.19z"/>
	<path id="Path_16" class="st0" d="M132.52,182.86c2.35,0,4.57-1.07,6.03-2.91l11.43-14.34l16.52-7.96
		c2.12-1.02,3.65-2.95,4.17-5.24l4.04-17.88l11.43-14.34c1.47-1.84,2.02-4.24,1.49-6.53l-4.04-17.88l4.04-17.88
		c0.52-2.29-0.03-4.7-1.49-6.53l-11.38-14.31l-4.04-17.88c-0.52-2.29-2.06-4.22-4.17-5.24l-16.52-7.96l-11.49-14.33
		c-1.46-1.84-3.68-2.91-6.03-2.91h-18.34L97.64,0.77c-2.13-1.03-4.61-1.03-6.73,0L74.43,8.73H56.09c-2.35,0-4.57,1.07-6.03,2.91
		L38.62,25.98L22.1,33.94c-2.12,1.02-3.65,2.95-4.17,5.24l-4.04,17.88L2.41,71.37c-1.47,1.84-2.02,4.24-1.49,6.53l4.04,17.88
		l-4.04,17.88c-0.52,2.29,0.03,4.7,1.49,6.53l11.43,14.34l4.04,17.88c0.52,2.29,2.06,4.22,4.17,5.24l16.52,7.96l11.43,14.34
		c1.46,1.84,3.68,2.91,6.03,2.91h18.34l16.52,7.96c2.13,1.03,4.61,1.03,6.73,0l16.52-7.96h18.34L132.52,182.86z M94.3,163.32
		c-37.29,0-67.52-30.23-67.52-67.52S57.01,28.28,94.3,28.28s67.52,30.23,67.52,67.52l0,0C161.77,133.07,131.57,163.27,94.3,163.32z"
		/>
	<path id="Path_17" class="st0" d="M94.3,35.93c-33.03,0-59.8,26.77-59.8,59.8s26.77,59.8,59.8,59.8c33.03,0,59.8-26.77,59.8-59.8
		l0,0C154.07,62.72,127.31,35.97,94.3,35.93z M95.9,113.44c-2.78,2.78-7.21,3.02-10.27,0.57l-19.3-15.43l9.64-12.05l13.9,11.12
		L112,75.52l10.91,10.91l-27,27.07V113.44z"/>
</g>
</svg>
